<svg width="970" height="423" viewBox="0 0 970 423" fill="none" xmlns="http://www.w3.org/2000/svg">
<mask id="path-1-outside-1_451_10334" maskUnits="userSpaceOnUse" x="14" y="25.524" width="268" height="375" fill="black">
<rect fill="white" x="14" y="25.524" width="268" height="375"/>
<path d="M174.248 387.355C193.874 387.355 203.885 377.081 203.885 357.059L203.885 311.88C203.885 292.781 209.022 282.77 225.355 270.125C252.752 248.919 267.9 216.121 267.9 182.138L267.9 138.144C267.9 128.265 261.578 121.942 251.83 121.942L217.057 121.942L217.057 59.5078C217.057 48.18 207.705 38.828 196.377 38.828C184.918 38.828 175.697 48.18 175.697 59.5078L175.697 121.942L120.244 121.942L120.244 59.5078C120.244 48.18 111.024 38.828 99.564 38.828C88.2363 38.828 78.8843 48.18 78.8843 59.5078L78.8843 121.942L43.5838 121.942C34.1001 121.942 27.9093 128.396 27.9093 138.144L27.9093 182.138C27.9093 216.121 42.9252 248.919 70.4543 270.125C86.6557 282.77 91.7927 292.781 91.7927 311.88L91.7927 357.059C91.7927 377.081 101.935 387.355 121.561 387.355L174.248 387.355ZM172.141 367.202L123.669 367.202C115.897 367.202 111.946 362.987 111.946 355.611L111.946 311.88C111.946 286.458 103.911 270.652 82.7041 254.319C60.0486 236.801 47.9305 210.194 47.9305 182.138L47.9305 146.31C47.9305 143.544 49.5111 142.095 52.1455 142.095L243.532 142.095C246.298 142.095 247.747 143.544 247.747 146.31L247.747 182.138C247.747 210.194 235.761 236.801 212.974 254.319C191.767 270.652 183.864 286.458 183.864 311.88L183.864 355.611C183.864 362.987 179.912 367.202 172.141 367.202Z"/>
</mask>
<path d="M225.355 270.125L217.326 259.752L217.325 259.753L225.355 270.125ZM217.057 121.942L203.939 121.942L203.939 135.06L217.057 135.06L217.057 121.942ZM175.697 121.942L175.697 135.06L188.815 135.06L188.815 121.942L175.697 121.942ZM120.244 121.942L107.126 121.942L107.126 135.06L120.244 135.06L120.244 121.942ZM78.8843 121.942L78.8843 135.06L92.0018 135.06L92.0018 121.942L78.8843 121.942ZM70.4543 270.125L78.5252 259.785L78.4924 259.759L78.4594 259.734L70.4543 270.125ZM82.7041 254.319L74.68 264.696L74.69 264.704L74.7 264.712L82.7041 254.319ZM212.974 254.319L204.978 243.92L204.969 243.927L212.974 254.319ZM174.248 400.472C186.238 400.472 197.575 397.307 205.808 388.883C213.988 380.513 217.003 369.092 217.003 357.059L190.767 357.059C190.767 365.048 188.777 368.775 187.045 370.547C185.366 372.265 181.884 374.237 174.248 374.237L174.248 400.472ZM217.003 357.059L217.003 311.88L190.767 311.88L190.767 357.059L217.003 357.059ZM217.003 311.88C217.003 303.49 218.138 298.516 220.162 294.579C222.239 290.537 225.928 286.271 233.385 280.498L217.325 259.753C208.449 266.625 201.402 273.687 196.828 282.586C192.2 291.59 190.767 301.171 190.767 311.88L217.003 311.88ZM233.384 280.499C264.15 256.684 281.018 219.974 281.018 182.138L254.782 182.138C254.782 212.268 241.355 241.153 217.326 259.752L233.384 280.499ZM281.018 182.138L281.018 138.144L254.782 138.144L254.782 182.138L281.018 182.138ZM281.018 138.144C281.018 130.361 278.472 122.772 272.823 117.09C267.169 111.402 259.596 108.825 251.83 108.825L251.83 135.06C252.85 135.06 253.472 135.224 253.788 135.345C254.088 135.458 254.19 135.559 254.218 135.587C254.246 135.615 254.357 135.73 254.481 136.06C254.612 136.407 254.782 137.071 254.782 138.144L281.018 138.144ZM251.83 108.825L217.057 108.825L217.057 135.06L251.83 135.06L251.83 108.825ZM230.174 121.942L230.174 59.5078L203.939 59.5078L203.939 121.942L230.174 121.942ZM230.174 59.5078C230.174 40.9354 214.949 25.7105 196.377 25.7105L196.377 51.9456C200.46 51.9456 203.939 55.4247 203.939 59.5078L230.174 59.5078ZM196.377 25.7105C177.619 25.7105 162.58 40.9898 162.58 59.5078L188.815 59.5078C188.815 55.3702 192.216 51.9456 196.377 51.9456L196.377 25.7105ZM162.58 59.5078L162.58 121.942L188.815 121.942L188.815 59.5078L162.58 59.5078ZM175.697 108.825L120.244 108.825L120.244 135.06L175.697 135.06L175.697 108.825ZM133.361 121.942L133.361 59.5078L107.126 59.5078L107.126 121.942L133.361 121.942ZM133.361 59.5078C133.361 40.9898 118.322 25.7105 99.564 25.7105L99.564 51.9456C103.725 51.9456 107.126 55.3702 107.126 59.5078L133.361 59.5078ZM99.564 25.7105C80.9916 25.7105 65.7667 40.9354 65.7667 59.5078L92.0018 59.5078C92.0018 55.4247 95.4809 51.9456 99.564 51.9456L99.564 25.7105ZM65.7667 59.5078L65.7667 121.942L92.0018 121.942L92.0018 59.5078L65.7667 59.5078ZM78.8843 108.825L43.5838 108.825L43.5838 135.06L78.8843 135.06L78.8843 108.825ZM43.5838 108.825C35.7667 108.825 28.2741 111.556 22.7515 117.278C17.2734 122.954 14.7917 130.47 14.7917 138.144L41.0268 138.144C41.0268 137.093 41.1931 136.416 41.3322 136.038C41.4665 135.674 41.593 135.534 41.6288 135.497C41.6609 135.464 41.7388 135.388 41.9602 135.3C42.1954 135.207 42.7051 135.06 43.5838 135.06L43.5838 108.825ZM14.7917 138.144L14.7917 182.138L41.0268 182.138L41.0268 138.144L14.7917 138.144ZM14.7917 182.138C14.7917 219.944 31.5059 256.68 62.4492 280.517L78.4594 259.734C54.3445 241.157 41.0269 212.298 41.0268 182.138L14.7917 182.138ZM62.3835 280.466C69.7775 286.237 73.4477 290.503 75.5203 294.556C77.5403 298.505 78.6751 303.491 78.6751 311.88L104.91 311.88C104.91 301.17 103.477 291.601 98.8777 282.609C94.3314 273.72 87.3325 266.659 78.5252 259.785L62.3835 280.466ZM78.6751 311.88L78.6751 357.059L104.91 357.059L104.91 311.88L78.6751 311.88ZM78.6751 357.059C78.6751 369.135 81.7449 380.558 89.966 388.914C98.2241 397.309 109.572 400.472 121.561 400.472L121.561 374.237C113.924 374.237 110.388 372.264 108.668 370.516C106.912 368.73 104.91 365.005 104.91 357.059L78.6751 357.059ZM121.561 400.472L174.248 400.472L174.248 374.237L121.561 374.237L121.561 400.472ZM172.141 354.084L123.669 354.084L123.669 380.319L172.141 380.319L172.141 354.084ZM123.669 354.084C122.885 354.084 122.686 353.975 122.878 354.042C123.121 354.127 123.657 354.381 124.207 354.936C124.755 355.488 125.006 356.025 125.091 356.273C125.16 356.474 125.063 356.311 125.063 355.611L98.828 355.611C98.828 361.545 100.444 368.232 105.579 373.409C110.734 378.608 117.485 380.319 123.669 380.319L123.669 354.084ZM125.063 355.611L125.063 311.88L98.828 311.88L98.828 355.611L125.063 355.611ZM125.063 311.88C125.063 297.751 122.822 285.263 116.972 273.75C111.149 262.29 102.281 252.84 90.7083 243.927L74.7 264.712C84.334 272.132 90.0861 278.751 93.5827 285.633C97.0522 292.462 98.828 300.587 98.828 311.88L125.063 311.88ZM90.7282 243.942C71.4846 229.062 61.048 206.391 61.048 182.138L34.8129 182.138C34.8129 213.996 48.6125 244.539 74.68 264.696L90.7282 243.942ZM61.048 182.138L61.048 146.31L34.8129 146.31L34.8129 182.138L61.048 182.138ZM61.048 146.31C61.048 147.407 60.6836 150.138 58.2184 152.547C55.8052 154.905 53.1569 155.213 52.1455 155.213L52.1455 128.978C48.4997 128.978 43.7439 130.01 39.8818 133.784C35.9677 137.609 34.8129 142.447 34.8129 146.31L61.048 146.31ZM52.1455 155.213L243.532 155.213L243.532 128.978L52.1455 128.978L52.1455 155.213ZM243.532 155.213C242.739 155.213 239.942 154.982 237.401 152.441C234.86 149.9 234.63 147.104 234.63 146.31L260.865 146.31C260.865 142.75 259.909 137.847 255.952 133.89C251.996 129.933 247.092 128.978 243.532 128.978L243.532 155.213ZM234.63 146.31L234.63 182.138L260.865 182.138L260.865 146.31L234.63 146.31ZM234.63 182.138C234.63 206.429 224.299 229.067 204.979 243.92L220.969 264.719C247.223 244.535 260.865 213.958 260.865 182.138L234.63 182.138ZM204.969 243.927C193.383 252.85 184.542 262.311 178.755 273.783C172.945 285.299 170.746 297.781 170.746 311.88L196.981 311.88C196.981 300.558 198.734 292.426 202.178 285.6C205.643 278.73 211.357 272.121 220.978 264.712L204.969 243.927ZM170.746 311.88L170.746 355.611L196.981 355.611L196.981 311.88L170.746 311.88ZM170.746 355.611C170.746 356.311 170.65 356.474 170.718 356.273C170.804 356.025 171.055 355.488 171.602 354.936C172.152 354.381 172.688 354.127 172.931 354.042C173.123 353.975 172.924 354.084 172.141 354.084L172.141 380.319C178.324 380.319 185.075 378.608 190.231 373.409C195.365 368.232 196.981 361.545 196.981 355.611L170.746 355.611Z" fill="white" mask="url(#path-1-outside-1_451_10334)"/>
<path d="M128.279 217.528C128.279 218.73 129.221 219.64 130.554 219.64H148.072L138.842 244.667C137.607 247.884 140.954 249.607 143.099 246.974L171.279 211.84C171.799 211.157 172.091 210.54 172.091 209.857C172.091 208.622 171.149 207.712 169.849 207.712H152.297L161.561 182.718C162.763 179.468 159.415 177.778 157.303 180.41L129.124 215.512C128.571 216.195 128.279 216.813 128.279 217.528Z" fill="#FFCC00"/>
<path d="M411.442 184.809C419.212 184.809 423.895 180.02 423.895 171.93V74.0044H424.641L465.407 172.888C467.962 179.168 472.113 182.042 478.393 182.042C484.78 182.042 488.718 179.168 491.379 172.782L532.146 74.0044H532.891V171.93C532.891 180.02 537.468 184.809 545.238 184.809C553.008 184.809 557.585 180.02 557.585 171.93V45.0524C557.585 34.089 551.092 27.5961 540.129 27.5961C530.549 27.5961 525.014 31.7473 520.97 41.8592L478.819 145.32H477.967L435.71 41.8592C431.666 31.6408 426.237 27.5961 416.764 27.5961C405.8 27.5961 399.095 34.1954 399.095 45.0524V171.93C399.095 180.02 403.672 184.809 411.442 184.809ZM595.904 54.3128C604.207 54.3128 610.699 47.9263 610.699 39.9432C610.699 31.8537 604.207 25.5737 595.904 25.5737C587.708 25.5737 581.215 31.8537 581.215 39.9432C581.215 47.9263 587.708 54.3128 595.904 54.3128ZM595.904 185.129C603.994 185.129 609.209 179.807 609.209 171.185V81.9875C609.209 73.3657 603.994 67.9372 595.904 67.9372C587.815 67.9372 582.705 73.3657 582.705 81.881V171.185C582.705 179.807 587.815 185.129 595.904 185.129ZM644.654 185.129C652.424 185.129 657.959 180.126 657.959 171.185V117.645C657.959 101.466 667.645 90.5027 682.866 90.5027C697.981 90.5027 705.432 99.4438 705.432 115.41V171.185C705.432 180.126 710.967 185.129 718.737 185.129C726.507 185.129 731.936 180.126 731.936 171.185V110.088C731.936 84.0098 717.779 68.0437 692.872 68.0437C675.522 68.0437 663.814 75.8139 657.746 89.2254H657.214V81.3488C657.214 73.1529 651.892 67.9372 644.122 67.9372C636.245 67.9372 631.455 73.1529 631.455 81.3488V171.185C631.455 180.126 636.884 185.129 644.654 185.129ZM453.167 396.555C490.102 396.555 513.199 378.034 513.199 348.656C513.199 325.878 499.575 312.892 467.217 306.186L450.719 302.78C431.559 298.735 423.895 292.029 423.895 281.598C423.895 268.719 436.03 260.629 453.06 260.629C467.43 260.629 478.393 266.164 483.609 279.15C486.483 285.111 490.421 287.878 496.808 287.878C503.939 287.878 508.729 283.301 508.729 276.596C508.729 274.041 508.41 272.019 507.771 270.316C501.491 249.985 480.416 237.851 453.273 237.851C419.957 237.851 396.221 256.159 396.221 283.195C396.221 305.654 410.59 320.13 441.352 326.41L457.85 329.816C477.861 333.967 485.525 340.779 485.525 351.849C485.525 364.622 472.539 373.776 454.018 373.776C437.626 373.776 424.428 367.816 419.638 354.51C416.657 348.337 412.826 345.889 406.758 345.889C399.52 345.889 394.624 350.785 394.624 358.449C394.624 361.003 395.156 363.771 396.114 366.325C402.075 383.782 422.512 396.555 453.167 396.555ZM538.532 366.112C538.532 385.378 548.538 395.171 568.229 395.171H569.294C581.428 395.171 588.24 391.02 588.24 383.249C588.24 377.076 584.621 374.096 577.596 373.457L575.68 373.244C568.017 372.605 565.036 368.88 565.036 360.365V301.609H577.277C583.876 301.609 587.921 297.671 587.921 291.284C587.921 285.004 583.876 281.173 577.277 281.173H565.036V266.164C565.036 257.649 559.927 252.327 551.838 252.327C543.642 252.327 538.532 257.649 538.532 266.164V281.173H531.401C524.802 281.173 520.757 285.004 520.757 291.284C520.757 297.671 524.802 301.609 531.401 301.609H538.532V366.112ZM617.618 396.129C625.601 396.129 630.923 390.913 630.923 382.185V327.9C630.923 314.169 636.671 304.696 651.786 304.59C657.001 304.483 660.94 303.312 663.494 301.077C666.155 298.948 667.433 295.861 667.433 291.71C667.433 287.346 666.155 284.153 663.707 282.13C661.685 280.321 658.491 279.257 654.34 279.257C643.058 279.257 633.265 287.772 630.178 300.971H629.646V292.349C629.646 284.046 624.43 278.937 617.086 278.937C609.529 278.937 604.419 284.046 604.419 292.349V382.185C604.419 390.913 609.635 396.129 617.618 396.129ZM688.827 401.025C691.595 401.025 693.085 399.748 694.575 397.513L698.939 390.7C706.496 394.319 715.225 396.235 725.017 396.235C758.12 396.235 779.621 374.202 779.621 337.586C779.621 317.788 773.235 302.248 762.165 292.136L767.487 283.94C768.445 282.343 768.871 281.279 768.871 279.682C768.871 276.383 766.103 273.935 762.804 273.935C760.143 273.935 758.652 274.786 756.843 277.554L752.053 285.004C744.283 280.96 735.235 278.831 725.017 278.831C692.127 278.831 670.413 301.183 670.413 337.586C670.413 357.81 677.012 373.563 688.401 383.675L683.931 390.594C682.654 392.51 682.334 393.468 682.334 395.384C682.334 398.364 685.208 401.025 688.827 401.025ZM697.342 337.586C697.342 313.637 708.306 299.906 725.017 299.906C730.552 299.906 735.555 301.396 739.6 304.377L702.558 361.855C699.152 355.681 697.342 347.485 697.342 337.586ZM725.017 375.266C719.802 375.266 715.225 373.883 711.286 371.435L747.902 314.276C750.989 320.343 752.692 328.219 752.692 337.586C752.692 361.642 741.835 375.266 725.017 375.266ZM809.851 396.129C817.727 396.129 823.156 391.02 823.156 382.185V324.92C823.156 311.295 832.097 301.396 844.87 301.396C857.217 301.396 864.881 309.166 864.881 321.727V382.185C864.881 391.02 869.777 396.129 877.76 396.129C885.637 396.129 890.639 391.02 890.639 382.185V324.281C890.639 310.763 899.368 301.396 912.14 301.396C925.126 301.396 932.364 309.273 932.364 323.11V382.185C932.364 391.02 937.686 396.129 945.669 396.129C953.546 396.129 958.868 391.02 958.868 382.185V316.617C958.868 294.052 944.286 279.044 922.039 279.044C905.754 279.044 892.342 287.772 886.914 301.716H886.275C882.124 287.24 870.735 279.044 854.769 279.044C839.441 279.044 827.52 287.665 822.624 300.758H822.091V292.455C822.091 283.834 816.769 278.937 809.318 278.937C801.868 278.937 796.652 283.834 796.652 292.455V382.185C796.652 391.02 801.868 396.129 809.851 396.129Z" fill="white"/>
</svg>
