<svg width="970" height="423" viewBox="0 0 970 423" fill="none" xmlns="http://www.w3.org/2000/svg">
<mask id="path-1-outside-1_1115_254" maskUnits="userSpaceOnUse" x="25" y="40.524" width="246" height="345" fill="black">
<rect fill="white" x="25" y="40.524" width="246" height="345"/>
<path d="M171.746 371.68L124.327 371.68C105.755 371.68 95.8759 361.67 95.8759 342.834L95.8759 302.133C95.8759 285.273 91.661 276.975 77.3037 265.91C52.1455 246.416 38.4468 216.384 38.4468 185.299L38.4468 145.783C38.4468 136.036 44.7692 129.582 54.253 129.582L84.2847 129.582L84.2847 74.9189C84.2847 63.5911 93.3733 54.6342 104.569 54.6342C115.765 54.6342 124.722 63.5911 124.722 74.9189L124.722 129.582L171.351 129.582L171.351 74.9189C171.351 63.5911 180.439 54.6342 191.635 54.6342C202.831 54.6342 211.92 63.5911 211.92 74.9189L211.92 129.582L241.556 129.582C251.172 129.582 257.626 136.036 257.626 145.783L257.626 185.299C257.626 216.384 243.927 246.416 218.637 265.91C204.412 276.975 200.065 285.273 200.065 302.133L200.065 342.834C200.065 361.67 190.186 371.68 171.746 371.68ZM169.77 350.21C175.829 350.21 178.727 347.181 178.727 341.517L178.727 302.133C178.727 278.819 186.235 264.066 205.597 249.05C225.75 233.508 236.156 210.194 236.156 185.299L236.156 153.291C236.156 151.579 235.629 150.92 234.048 150.92L61.8926 150.92C60.4437 150.92 59.7851 151.579 59.7851 153.291L59.7851 185.299C59.7851 210.194 70.3226 233.508 90.3438 249.05C109.838 264.066 117.346 278.819 117.346 302.133L117.346 341.517C117.346 347.181 120.112 350.21 126.303 350.21L169.77 350.21Z"/>
</mask>
<path d="M77.3037 265.91L69.2691 276.279L69.2828 276.29L69.2965 276.301L77.3037 265.91ZM84.2847 129.582L84.2847 142.7L97.4023 142.7L97.4023 129.582L84.2847 129.582ZM124.722 129.582L111.605 129.582L111.605 142.7L124.722 142.7L124.722 129.582ZM171.351 129.582L171.351 142.7L184.468 142.7L184.468 129.582L171.351 129.582ZM211.92 129.582L198.802 129.582L198.802 142.7L211.92 142.7L211.92 129.582ZM218.637 265.91L210.629 255.521L210.606 255.539L210.584 255.556L218.637 265.91ZM205.597 249.05L197.586 238.663L197.572 238.674L197.559 238.685L205.597 249.05ZM90.3438 249.05L82.2998 259.412L82.3194 259.427L82.3391 259.443L90.3438 249.05ZM171.746 358.563L124.327 358.563L124.327 384.798L171.746 384.798L171.746 358.563ZM124.327 358.563C117.315 358.563 114.052 356.706 112.476 355.108C110.87 353.481 108.994 350.072 108.994 342.834L82.7584 342.834C82.7584 354.432 85.821 365.445 93.7983 373.532C101.805 381.649 112.767 384.798 124.327 384.798L124.327 358.563ZM108.994 342.834L108.994 302.133L82.7584 302.133L82.7584 342.834L108.994 342.834ZM108.994 302.133C108.994 292.664 107.827 284.031 103.651 275.872C99.5246 267.81 93.1434 261.556 85.3108 255.52L69.2965 276.301C75.8212 281.329 78.7261 284.756 80.2969 287.825C81.8173 290.795 82.7584 294.742 82.7584 302.133L108.994 302.133ZM85.3383 255.541C63.574 238.677 51.5643 212.571 51.5643 185.299L25.3292 185.299C25.3292 220.197 40.717 254.155 69.2691 276.279L85.3383 255.541ZM51.5643 185.299L51.5643 145.783L25.3292 145.783L25.3292 185.299L51.5643 185.299ZM51.5643 145.783C51.5643 143.787 52.1622 143.209 52.1774 143.193C52.2271 143.142 52.3309 143.049 52.582 142.951C52.8453 142.847 53.3741 142.7 54.253 142.7L54.253 116.464C46.4467 116.464 38.9528 119.186 33.4095 124.862C27.8925 130.51 25.3292 138.032 25.3292 145.783L51.5643 145.783ZM54.253 142.7L84.2847 142.7L84.2847 116.464L54.253 116.464L54.253 142.7ZM97.4023 129.582L97.4023 74.9189L71.1672 74.9189L71.1672 129.582L97.4023 129.582ZM97.4023 74.9189C97.4023 70.8912 100.562 67.7518 104.569 67.7518L104.569 41.5167C86.1843 41.5167 71.1672 56.2909 71.1672 74.9189L97.4023 74.9189ZM104.569 67.7518C108.465 67.7518 111.605 70.7798 111.605 74.9189L137.84 74.9189C137.84 56.4024 123.066 41.5167 104.569 41.5167L104.569 67.7518ZM111.605 74.9189L111.605 129.582L137.84 129.582L137.84 74.9189L111.605 74.9189ZM124.722 142.7L171.351 142.7L171.351 116.464L124.722 116.464L124.722 142.7ZM184.468 129.582L184.468 74.9189L158.233 74.9189L158.233 129.582L184.468 129.582ZM184.468 74.9189C184.468 70.8912 187.628 67.7518 191.635 67.7518L191.635 41.5167C173.25 41.5167 158.233 56.2909 158.233 74.9189L184.468 74.9189ZM191.635 67.7518C195.642 67.7518 198.802 70.8912 198.802 74.9189L225.037 74.9189C225.037 56.2909 210.02 41.5167 191.635 41.5167L191.635 67.7518ZM198.802 74.9189L198.802 129.582L225.037 129.582L225.037 74.9189L198.802 74.9189ZM211.92 142.7L241.556 142.7L241.556 116.464L211.92 116.464L211.92 142.7ZM241.556 142.7C243.358 142.7 243.864 143.245 243.894 143.276C243.929 143.311 244.508 143.866 244.508 145.783L270.744 145.783C270.744 137.953 268.096 130.408 262.5 124.779C256.899 119.146 249.37 116.464 241.556 116.464L241.556 142.7ZM244.508 145.783L244.508 185.299L270.744 185.299L270.744 145.783L244.508 145.783ZM244.508 185.299C244.508 212.566 232.505 238.659 210.629 255.521L226.646 276.3C255.35 254.173 270.744 220.203 270.744 185.299L244.508 185.299ZM210.584 255.556C202.84 261.579 196.486 267.818 192.354 275.844C188.162 283.988 186.948 292.614 186.948 302.133L213.183 302.133C213.183 294.792 214.142 290.839 215.68 287.852C217.277 284.749 220.209 281.306 226.691 276.265L210.584 255.556ZM186.948 302.133L186.948 342.834L213.183 342.834L213.183 302.133L186.948 302.133ZM186.948 342.834C186.948 350.072 185.07 353.493 183.466 355.125C181.898 356.72 178.668 358.563 171.746 358.563L171.746 384.798C183.264 384.798 194.194 381.635 202.175 373.516C210.121 365.434 213.183 354.432 213.183 342.834L186.948 342.834ZM169.77 363.328C174.822 363.328 180.948 362.057 185.744 357.315C190.566 352.547 191.844 346.447 191.844 341.517L165.609 341.517C165.609 342.25 165.439 340.497 167.297 338.66C169.129 336.849 170.777 337.093 169.77 337.093L169.77 363.328ZM191.844 341.517L191.844 302.133L165.609 302.133L165.609 341.517L191.844 341.517ZM191.844 302.133C191.844 291.926 193.477 284.575 196.602 278.41C199.753 272.191 204.937 266.162 213.636 259.416L197.559 238.685C186.895 246.955 178.644 255.809 173.2 266.55C167.73 277.343 165.609 289.025 165.609 302.133L191.844 302.133ZM213.608 259.438C237.242 241.211 249.273 213.92 249.273 185.299L223.038 185.299C223.038 206.467 214.259 225.805 197.586 238.663L213.608 259.438ZM249.273 185.299L249.273 153.291L223.038 153.291L223.038 185.299L249.273 185.299ZM249.273 153.291C249.273 151.81 249.211 147.016 245.594 142.856C241.531 138.184 236.209 137.803 234.048 137.803L234.048 164.038C233.469 164.038 229.2 163.986 225.796 160.071C224.253 158.297 223.592 156.48 223.308 155.319C223.041 154.227 223.038 153.446 223.038 153.291L249.273 153.291ZM234.048 137.803L61.8926 137.803L61.8926 164.038L234.048 164.038L234.048 137.803ZM61.8926 137.803C59.46 137.803 54.5169 138.338 50.6084 142.619C46.9748 146.599 46.6676 151.229 46.6676 153.291L72.9027 153.291C72.9027 153.641 72.9248 157.086 69.9827 160.308C66.7657 163.832 62.8764 164.038 61.8926 164.038L61.8926 137.803ZM46.6676 153.291L46.6676 185.299L72.9027 185.299L72.9027 153.291L46.6676 153.291ZM46.6676 185.299C46.6676 213.963 58.8607 241.216 82.2998 259.412L98.3877 238.689C81.7845 225.799 72.9027 206.424 72.9027 185.299L46.6676 185.299ZM82.3391 259.443C91.0993 266.19 96.3048 272.218 99.4637 278.428C102.595 284.583 104.228 291.926 104.228 302.133L130.464 302.133C130.464 289.026 128.343 277.335 122.847 266.532C117.378 255.783 109.083 246.927 98.3485 238.658L82.3391 259.443ZM104.228 302.133L104.228 341.517L130.464 341.517L130.464 302.133L104.228 302.133ZM104.228 341.517C104.228 346.294 105.397 352.432 110.227 357.263C115.057 362.092 121.258 363.328 126.303 363.328L126.303 337.093C125.157 337.093 126.88 336.813 128.778 338.712C130.678 340.612 130.464 342.403 130.464 341.517L104.228 341.517ZM126.303 363.328L169.77 363.328L169.77 337.093L126.303 337.093L126.303 363.328Z" fill="#007AFF" mask="url(#path-1-outside-1_1115_254)"/>
<path d="M128.279 217.528C128.279 216.813 128.571 216.195 129.124 215.512L157.303 180.41C159.415 177.778 162.763 179.468 161.561 182.718L152.297 207.712H169.849C171.149 207.712 172.091 208.622 172.091 209.857C172.091 210.54 171.799 211.157 171.279 211.84L143.099 246.974C140.954 249.607 137.607 247.884 138.842 244.667L148.072 219.64H130.554C129.221 219.64 128.279 218.73 128.279 217.528Z" fill="#FFCC00"/>
<path d="M411.442 184.809C403.672 184.809 399.095 180.02 399.095 171.93V45.0524C399.095 34.1954 405.801 27.5961 416.764 27.5961C426.237 27.5961 431.666 31.6408 435.711 41.8592L477.968 145.32H478.819L520.97 41.8592C525.015 31.7473 530.55 27.5961 540.129 27.5961C551.093 27.5961 557.586 34.089 557.586 45.0524V171.93C557.586 180.02 553.009 184.809 545.238 184.809C537.468 184.809 532.891 180.02 532.891 171.93V74.0044H532.146L491.379 172.782C488.718 179.168 484.78 182.042 478.393 182.042C472.113 182.042 467.962 179.168 465.408 172.888L424.641 74.0044H423.896V171.93C423.896 180.02 419.212 184.809 411.442 184.809ZM595.904 54.3128C587.708 54.3128 581.216 47.9263 581.216 39.9432C581.216 31.8537 587.708 25.5737 595.904 25.5737C604.207 25.5737 610.7 31.8537 610.7 39.9432C610.7 47.9263 604.207 54.3128 595.904 54.3128ZM595.904 185.129C587.815 185.129 582.706 179.807 582.706 171.185V81.881C582.706 73.3657 587.815 67.9372 595.904 67.9372C603.994 67.9372 609.21 73.3657 609.21 81.9875V171.185C609.21 179.807 603.994 185.129 595.904 185.129ZM644.654 185.129C636.884 185.129 631.456 180.126 631.456 171.185V81.3488C631.456 73.1529 636.246 67.9372 644.122 67.9372C651.892 67.9372 657.214 73.1529 657.214 81.3488V89.2254H657.747C663.814 75.8139 675.522 68.0437 692.872 68.0437C717.779 68.0437 731.936 84.0098 731.936 110.088V171.185C731.936 180.126 726.508 185.129 718.737 185.129C710.967 185.129 705.432 180.126 705.432 171.185V115.41C705.432 99.4438 697.981 90.5027 682.867 90.5027C667.646 90.5027 657.96 101.466 657.96 117.645V171.185C657.96 180.126 652.425 185.129 644.654 185.129ZM453.167 396.555C422.512 396.555 402.075 383.782 396.115 366.325C395.157 363.771 394.624 361.003 394.624 358.449C394.624 350.785 399.521 345.889 406.759 345.889C412.826 345.889 416.658 348.337 419.638 354.51C424.428 367.816 437.627 373.776 454.018 373.776C472.539 373.776 485.525 364.622 485.525 351.849C485.525 340.779 477.861 333.967 457.85 329.816L441.352 326.41C410.591 320.13 396.221 305.654 396.221 283.195C396.221 256.159 419.957 237.851 453.273 237.851C480.416 237.851 501.491 249.985 507.771 270.316C508.41 272.019 508.729 274.041 508.729 276.596C508.729 283.301 503.939 287.878 496.808 287.878C490.421 287.878 486.483 285.111 483.609 279.15C478.393 266.164 467.43 260.629 453.061 260.629C436.03 260.629 423.896 268.719 423.896 281.598C423.896 292.029 431.559 298.735 450.719 302.78L467.217 306.186C499.575 312.892 513.2 325.878 513.2 348.656C513.2 378.034 490.102 396.555 453.167 396.555ZM538.533 366.112V301.609H531.401C524.802 301.609 520.757 297.671 520.757 291.284C520.757 285.004 524.802 281.173 531.401 281.173H538.533V266.164C538.533 257.649 543.642 252.327 551.838 252.327C559.927 252.327 565.036 257.649 565.036 266.164V281.173H577.277C583.877 281.173 587.921 285.004 587.921 291.284C587.921 297.671 583.877 301.609 577.277 301.609H565.036V360.365C565.036 368.88 568.017 372.605 575.681 373.244L577.597 373.457C584.622 374.096 588.241 377.076 588.241 383.249C588.241 391.02 581.428 395.171 569.294 395.171H568.23C548.538 395.171 538.533 385.378 538.533 366.112ZM617.618 396.129C609.635 396.129 604.42 390.913 604.42 382.185V292.349C604.42 284.046 609.529 278.937 617.086 278.937C624.431 278.937 629.646 284.046 629.646 292.349V300.971H630.178C633.265 287.772 643.058 279.257 654.341 279.257C658.492 279.257 661.685 280.321 663.707 282.13C666.155 284.153 667.433 287.346 667.433 291.71C667.433 295.861 666.155 298.948 663.494 301.077C660.94 303.312 657.002 304.483 651.786 304.59C636.671 304.696 630.923 314.169 630.923 327.9V382.185C630.923 390.913 625.601 396.129 617.618 396.129ZM688.827 401.025C685.208 401.025 682.335 398.364 682.335 395.384C682.335 393.468 682.654 392.51 683.931 390.594L688.402 383.675C677.012 373.563 670.413 357.81 670.413 337.586C670.413 301.183 692.127 278.831 725.017 278.831C735.236 278.831 744.283 280.96 752.053 285.004L756.843 277.554C758.653 274.786 760.143 273.935 762.804 273.935C766.104 273.935 768.871 276.383 768.871 279.682C768.871 281.279 768.445 282.343 767.487 283.94L762.165 292.136C773.235 302.248 779.622 317.788 779.622 337.586C779.622 374.202 758.121 396.235 725.017 396.235C715.225 396.235 706.497 394.319 698.939 390.7L694.575 397.513C693.085 399.748 691.595 401.025 688.827 401.025ZM697.343 337.586C697.343 347.485 699.152 355.681 702.558 361.855L739.6 304.377C735.555 301.396 730.552 299.906 725.017 299.906C708.306 299.906 697.343 313.637 697.343 337.586ZM725.017 375.266C741.835 375.266 752.692 361.642 752.692 337.586C752.692 328.219 750.989 320.343 747.902 314.276L711.286 371.435C715.225 373.883 719.802 375.266 725.017 375.266ZM809.851 396.129C801.868 396.129 796.652 391.02 796.652 382.185V292.455C796.652 283.834 801.868 278.937 809.319 278.937C816.77 278.937 822.092 283.834 822.092 292.455V300.758H822.624C827.52 287.665 839.441 279.044 854.769 279.044C870.735 279.044 882.124 287.24 886.276 301.716H886.914C892.343 287.772 905.754 279.044 922.04 279.044C944.286 279.044 958.868 294.052 958.868 316.617V382.185C958.868 391.02 953.546 396.129 945.67 396.129C937.687 396.129 932.365 391.02 932.365 382.185V323.11C932.365 309.273 925.127 301.396 912.141 301.396C899.368 301.396 890.64 310.763 890.64 324.281V382.185C890.64 391.02 885.637 396.129 877.76 396.129C869.777 396.129 864.881 391.02 864.881 382.185V321.727C864.881 309.166 857.217 301.396 844.87 301.396C832.097 301.396 823.156 311.295 823.156 324.92V382.185C823.156 391.02 817.728 396.129 809.851 396.129Z" fill="#007AFF"/>
</svg>
