<svg width="382" height="204" viewBox="0 0 382 204" fill="none" xmlns="http://www.w3.org/2000/svg">
<mask id="path-1-outside-1_1380_7653" maskUnits="userSpaceOnUse" x="13" y="9.13439" width="132" height="185" fill="black">
<rect fill="white" x="13" y="9.13439" width="132" height="185"/>
<path d="M91.6633 186.15L66.3726 186.15C56.467 186.15 51.1981 180.811 51.1981 170.765L51.1981 149.057C51.1981 140.065 48.9501 135.639 41.2926 129.738C27.8745 119.341 20.5683 103.323 20.5683 86.744L20.5683 65.6684C20.5683 60.4697 23.9404 57.0274 28.9985 57.0274L45.016 57.0274L45.016 27.8728C45.016 21.8311 49.8633 17.054 55.8348 17.054C61.8062 17.054 66.5833 21.8311 66.5833 27.8728L66.5833 57.0274L91.4525 57.0274L91.4525 27.8728C91.4525 21.8311 96.2999 17.054 102.271 17.054C108.243 17.054 113.09 21.8311 113.09 27.8728L113.09 57.0274L128.897 57.0274C134.025 57.0274 137.468 60.4697 137.468 65.6684L137.468 86.7439C137.468 103.323 130.161 119.341 116.673 129.738C109.086 135.639 106.767 140.065 106.767 149.057L106.767 170.765C106.767 180.811 101.499 186.15 91.6633 186.15ZM90.6095 174.699C93.8411 174.699 95.3866 173.084 95.3866 170.063L95.3866 149.057C95.3866 136.623 99.391 128.755 109.718 120.746C120.467 112.456 126.016 100.022 126.016 86.7439L126.016 69.6727C126.016 68.7594 125.735 68.4082 124.892 68.4082L33.0731 68.4082C32.3004 68.4082 31.9491 68.7595 31.9491 69.6727L31.9491 86.744C31.9491 100.022 37.5693 112.456 48.2476 120.746C58.6448 128.755 62.6492 136.623 62.6492 149.057L62.6492 170.063C62.6492 173.084 64.1245 174.699 67.4263 174.699L90.6095 174.699Z"/>
</mask>
<path d="M41.2926 129.738L37.0074 135.268L37.0147 135.274L37.022 135.28L41.2926 129.738ZM45.016 57.0274L45.016 64.0236L52.0122 64.0236L52.0122 57.0274L45.016 57.0274ZM66.5833 57.0274L59.5871 57.0274L59.5871 64.0236L66.5833 64.0236L66.5833 57.0274ZM91.4525 57.0274L91.4525 64.0236L98.4488 64.0236L98.4488 57.0274L91.4525 57.0274ZM113.09 57.0274L106.094 57.0274L106.094 64.0236L113.09 64.0236L113.09 57.0274ZM116.673 129.738L112.402 124.197L112.39 124.206L112.378 124.216L116.673 129.738ZM109.718 120.746L105.445 115.206L105.438 115.212L105.431 115.217L109.718 120.746ZM48.2476 120.746L43.9573 126.272L43.9678 126.28L43.9782 126.289L48.2476 120.746ZM91.6633 179.154L66.3726 179.154L66.3726 193.147L91.6633 193.147L91.6633 179.154ZM66.3726 179.154C62.6327 179.154 60.8921 178.164 60.0515 177.312C59.1954 176.444 58.1944 174.626 58.1944 170.765L44.2019 170.765C44.2019 176.951 45.8353 182.825 50.09 187.138C54.3603 191.467 60.2069 193.147 66.3726 193.147L66.3726 179.154ZM58.1944 170.765L58.1944 149.057L44.2019 149.057L44.2019 170.765L58.1944 170.765ZM58.1944 149.057C58.1944 144.007 57.5723 139.403 55.3448 135.051C53.1442 130.751 49.7407 127.416 45.5632 124.197L37.022 135.28C40.502 137.962 42.0513 139.79 42.889 141.426C43.7 143.011 44.2019 145.115 44.2019 149.057L58.1944 149.057ZM45.5779 124.208C33.9699 115.213 27.5645 101.29 27.5645 86.744L13.572 86.744C13.572 105.357 21.7791 123.469 37.0074 135.268L45.5779 124.208ZM27.5645 86.744L27.5645 65.6684L13.572 65.6684L13.572 86.744L27.5645 86.744ZM27.5645 65.6684C27.5645 64.6039 27.8834 64.2952 27.8915 64.2869C27.918 64.2598 27.9734 64.2102 28.1073 64.1576C28.2477 64.1024 28.5298 64.0236 28.9985 64.0236L28.9985 50.0311C24.835 50.0311 20.8382 51.4829 17.8816 54.5098C14.9392 57.5224 13.572 61.5342 13.572 65.6684L27.5645 65.6684ZM28.9985 64.0236L45.016 64.0236L45.016 50.0311L28.9985 50.0311L28.9985 64.0236ZM52.0122 57.0274L52.0122 27.8728L38.0197 27.8728L38.0197 57.0274L52.0122 57.0274ZM52.0122 27.8728C52.0122 25.7247 53.6976 24.0503 55.8348 24.0503L55.8348 10.0578C46.0291 10.0578 38.0197 17.9376 38.0197 27.8728L52.0122 27.8728ZM55.8348 24.0503C57.9125 24.0503 59.5871 25.6653 59.5871 27.8728L73.5796 27.8728C73.5796 17.997 65.6998 10.0578 55.8348 10.0578L55.8348 24.0503ZM59.5871 27.8728L59.5871 57.0274L73.5796 57.0274L73.5796 27.8728L59.5871 27.8728ZM66.5833 64.0236L91.4525 64.0236L91.4525 50.0311L66.5833 50.0311L66.5833 64.0236ZM98.4488 57.0274L98.4488 27.8728L84.4563 27.8728L84.4563 57.0274L98.4488 57.0274ZM98.4488 27.8728C98.4488 25.7247 100.134 24.0503 102.271 24.0503L102.271 10.0578C92.4656 10.0578 84.4563 17.9376 84.4563 27.8728L98.4488 27.8728ZM102.271 24.0503C104.408 24.0503 106.094 25.7247 106.094 27.8728L120.086 27.8728C120.086 17.9376 112.077 10.0578 102.271 10.0578L102.271 24.0503ZM106.094 27.8728L106.094 57.0274L120.086 57.0274L120.086 27.8728L106.094 27.8728ZM113.09 64.0236L128.897 64.0236L128.897 50.0311L113.09 50.0311L113.09 64.0236ZM128.897 64.0236C129.858 64.0236 130.128 64.3148 130.144 64.331C130.162 64.3498 130.471 64.6459 130.471 65.6684L144.464 65.6684C144.464 61.4922 143.051 57.4678 140.067 54.4657C137.08 51.4611 133.064 50.0311 128.897 50.0311L128.897 64.0236ZM130.471 65.6684L130.471 86.7439L144.464 86.7439L144.464 65.6684L130.471 65.6684ZM130.471 86.7439C130.471 101.287 124.069 115.203 112.402 124.197L120.944 135.279C136.254 123.478 144.464 105.36 144.464 86.7439L130.471 86.7439ZM112.378 124.216C108.248 127.428 104.858 130.755 102.655 135.036C100.419 139.38 99.7712 143.981 99.7712 149.057L113.764 149.057C113.764 145.142 114.275 143.034 115.095 141.441C115.948 139.786 117.511 137.95 120.968 135.261L112.378 124.216ZM99.7712 149.057L99.7712 170.765L113.764 170.765L113.764 149.057L99.7712 149.057ZM99.7712 170.765C99.7712 174.626 98.7699 176.45 97.9144 177.321C97.0781 178.171 95.355 179.154 91.6633 179.154L91.6633 193.147C97.8068 193.147 103.636 191.46 107.893 187.13C112.131 182.819 113.764 176.951 113.764 170.765L99.7712 170.765ZM90.6095 181.696C93.3041 181.696 96.5715 181.018 99.1293 178.489C101.701 175.946 102.383 172.692 102.383 170.063L88.3904 170.063C88.3904 170.454 88.2996 169.519 89.2905 168.539C90.2676 167.573 91.1465 167.703 90.6095 167.703L90.6095 181.696ZM102.383 170.063L102.383 149.057L88.3904 149.057L88.3904 170.063L102.383 170.063ZM102.383 149.057C102.383 143.614 103.254 139.693 104.92 136.405C106.601 133.088 109.366 129.872 114.005 126.274L105.431 115.217C99.7429 119.628 95.3422 124.351 92.4391 130.079C89.5216 135.836 88.3904 142.067 88.3904 149.057L102.383 149.057ZM113.991 126.286C126.595 116.565 133.013 102.009 133.013 86.7439L119.02 86.744C119.02 98.0339 114.338 108.348 105.445 115.206L113.991 126.286ZM133.013 86.7439L133.013 69.6727L119.02 69.6727L119.02 86.744L133.013 86.7439ZM133.013 69.6727C133.013 68.8826 132.979 66.3258 131.05 64.1072C128.883 61.6154 126.045 61.4119 124.892 61.4119L124.892 75.4044C124.583 75.4044 122.307 75.3766 120.491 73.2888C119.668 72.3423 119.316 71.3735 119.164 70.754C119.021 70.172 119.02 69.755 119.02 69.6727L133.013 69.6727ZM124.892 61.4119L33.0731 61.4119L33.0731 75.4044L124.892 75.4044L124.892 61.4119ZM33.0731 61.4119C31.7757 61.4119 29.1393 61.6975 27.0547 63.9806C25.1167 66.1032 24.9529 68.573 24.9529 69.6727L38.9453 69.6727C38.9453 69.8591 38.9571 71.6967 37.388 73.4153C35.6722 75.2945 33.5978 75.4044 33.0731 75.4044L33.0731 61.4119ZM24.9529 69.6727L24.9529 86.744L38.9453 86.744L38.9453 69.6727L24.9529 69.6727ZM24.9529 86.744C24.9529 102.032 31.456 116.567 43.9573 126.272L52.5378 115.219C43.6825 108.345 38.9453 98.0113 38.9453 86.744L24.9529 86.744ZM43.9782 126.289C48.6505 129.887 51.4269 133.103 53.1117 136.414C54.7819 139.697 55.653 143.613 55.653 149.057L69.6455 149.057C69.6455 142.067 68.5143 135.831 65.5831 130.07C62.6664 124.336 58.2419 119.613 52.5169 115.203L43.9782 126.289ZM55.653 149.057L55.653 170.063L69.6455 170.063L69.6455 149.057L55.653 149.057ZM55.653 170.063C55.653 172.611 56.276 175.884 58.8525 178.461C61.4281 181.037 64.7358 181.696 67.4263 181.696L67.4263 167.703C66.815 167.703 67.7342 167.554 68.7467 168.567C69.7601 169.58 69.6455 170.535 69.6455 170.063L55.653 170.063ZM67.4263 181.696L90.6095 181.696L90.6095 167.703L67.4263 167.703L67.4263 181.696Z" fill="#007AFF" mask="url(#path-1-outside-1_1380_7653)"/>
<path d="M68.4174 103.798C68.4174 103.417 68.5734 103.088 68.8681 102.724L83.8975 84.0019C85.0243 82.5977 86.8098 83.4991 86.1684 85.2326L81.2279 98.5632H90.5888C91.2822 98.5632 91.7849 99.0485 91.7849 99.7073C91.7849 100.071 91.6289 100.401 91.3515 100.765L76.3221 119.504C75.178 120.908 73.3925 119.989 74.0513 118.273L78.9744 104.925H69.6309C68.9201 104.925 68.4174 104.44 68.4174 103.798Z" fill="#FFCC00"/>
<path d="M214.067 142.882C209.582 142.882 206.687 140.27 206.687 136.126C206.687 134.991 206.971 133.401 207.652 131.641L231.439 66.9799C233.426 61.53 236.719 59.0321 242.055 59.0321C247.448 59.0321 250.741 61.4164 252.785 66.9231L276.628 131.641C277.309 133.515 277.593 134.82 277.593 136.126C277.593 140.1 274.528 142.882 270.27 142.882C266.296 142.882 264.082 141.065 262.776 136.694L257.383 121.025H226.784L221.391 136.58C220.028 141.008 217.871 142.882 214.067 142.882ZM230.247 109.444H253.806L242.169 74.4736H241.771L230.247 109.444ZM295.589 142.882C291.048 142.882 288.266 140.1 288.266 135.275V67.6044C288.266 62.8357 291.048 59.9972 295.589 59.9972H320.114C336.407 59.9972 347.705 71.0674 347.705 87.4172C347.705 103.767 336.067 114.837 319.49 114.837H302.913V135.275C302.913 140.1 300.188 142.882 295.589 142.882ZM302.913 103.029H316.197C326.7 103.029 332.831 97.352 332.831 87.4172C332.831 77.596 326.756 71.9757 316.254 71.9757H302.913V103.029ZM365.758 142.882C361.216 142.882 358.434 140.1 358.434 135.275V66.6393C358.434 61.8138 361.216 59.0321 365.758 59.0321C370.356 59.0321 373.081 61.8138 373.081 66.6393V135.275C373.081 140.1 370.356 142.882 365.758 142.882Z" fill="#007AFF"/>
</svg>
