<svg width="588" height="826" viewBox="0 0 588 826" fill="none" xmlns="http://www.w3.org/2000/svg">
<path d="M472.266 548.501C536.109 499.083 571.251 422.787 571.251 343.953V247.372C571.251 233.407 566.721 220.632 557.449 211.305C548.17 201.971 535.448 197.407 521.574 197.407H459.634V74.7415C459.634 41.9213 432.656 14.9441 399.836 14.9441C366.667 14.9441 340.039 41.981 340.039 74.7415V197.407H247.098L247.098 74.7415C247.098 41.981 220.47 14.9442 187.301 14.9442C154.48 14.9442 127.503 41.9213 127.503 74.7415V197.407H64.4059C50.6205 197.407 38.0948 202.176 29.0327 211.566C20.0196 220.904 15.5967 233.599 15.5967 247.372L15.5967 343.953C15.5967 422.739 50.4127 499.051 114.573 548.494C131.558 561.756 141.433 572.648 147.336 584.19C153.186 595.628 155.841 609.09 155.841 628.78V727.963C155.841 752.207 161.994 773.058 176.494 787.797C191.035 802.578 211.66 808.869 235.591 808.869H351.257C375.189 808.869 395.766 802.576 410.242 787.763C424.661 773.009 430.717 752.159 430.717 727.963V628.78C430.717 609.088 433.373 595.641 439.245 584.216C445.177 572.677 455.116 561.778 472.266 548.501ZM472.266 548.501L463.452 537.115L472.266 548.501ZM427.495 491L427.485 491.008C403.128 509.767 385.436 528.971 374.005 551.63C362.549 574.337 357.967 599.351 357.967 628.78V724.782C357.967 730.413 356.488 732.616 355.672 733.439C354.879 734.239 352.638 735.83 346.63 735.83H240.218C234.209 735.83 231.969 734.239 231.176 733.439C230.36 732.616 228.881 730.413 228.881 724.782V628.78C228.881 599.319 224.215 574.297 212.68 551.593C201.175 528.95 183.418 509.759 159.08 491.013C113.099 455.45 88.3469 401.365 88.3469 343.953V270.446L498.212 270.446V343.953C498.212 401.413 473.715 455.467 427.495 491Z" stroke="#007AFF" stroke-width="28.7973"/>
<path d="M248.705 412.678C248.705 415.318 250.774 417.316 253.699 417.316H292.158L271.894 472.257C269.183 479.321 276.532 483.102 281.241 477.323L343.104 400.191C344.245 398.693 344.887 397.337 344.887 395.839C344.887 393.127 342.818 391.129 339.964 391.129H301.434L321.769 336.26C324.409 329.124 317.06 325.414 312.422 331.194L250.56 408.254C249.347 409.752 248.705 411.108 248.705 412.678Z" fill="#FFCC00"/>
</svg>
