<svg width="700" height="320" viewBox="0 0 700 320" fill="none" xmlns="http://www.w3.org/2000/svg">
<g clip-path="url(#clip0_1376_7564)">
<mask id="mask0_1376_7564" style="mask-type:luminance" maskUnits="userSpaceOnUse" x="0" y="0" width="700" height="320">
<path d="M684 0H16C7.16344 0 0 7.16344 0 16V304C0 312.837 7.16344 320 16 320H684C692.837 320 700 312.837 700 304V16C700 7.16344 692.837 0 684 0Z" fill="white"/>
</mask>
<g mask="url(#mask0_1376_7564)">
<path d="M684 0H16C7.16344 0 0 7.16344 0 16V304C0 312.837 7.16344 320 16 320H684C692.837 320 700 312.837 700 304V16C700 7.16344 692.837 0 684 0Z" fill="url(#paint0_linear_1376_7564)"/>
<g opacity="0.8" filter="url(#filter0_f_1376_7564)">
<path d="M660 100C748.366 100 820 28.3656 820 -60C820 -148.366 748.366 -220 660 -220C571.634 -220 500 -148.366 500 -60C500 28.3656 571.634 100 660 100Z" fill="#64D2FF"/>
</g>
<g opacity="0.8" filter="url(#filter1_f_1376_7564)">
<path d="M20 373C108.366 373 180 301.366 180 213C180 124.634 108.366 53 20 53C-68.3656 53 -140 124.634 -140 213C-140 301.366 -68.3656 373 20 373Z" fill="#5AC8FA"/>
</g>
<g opacity="0.8" filter="url(#filter2_f_1376_7564)">
</g>
<g opacity="0.8" filter="url(#filter3_f_1376_7564)">
<path d="M20 573C108.366 573 180 501.366 180 413C180 324.634 108.366 253 20 253C-68.3656 253 -140 324.634 -140 413C-140 501.366 -68.3656 573 20 573Z" fill="#007AFF"/>
</g>
</g>
<mask id="path-6-outside-1_1376_7564" maskUnits="userSpaceOnUse" x="171" y="67.1345" width="132" height="185" fill="black">
<rect fill="white" x="171" y="67.1345" width="132" height="185"/>
<path d="M249.663 244.151L224.373 244.151C214.467 244.151 209.198 238.811 209.198 228.765L209.198 207.058C209.198 198.065 206.95 193.639 199.293 187.738C185.874 177.341 178.568 161.324 178.568 144.744L178.568 123.668C178.568 118.47 181.94 115.028 186.999 115.028L203.016 115.028L203.016 85.8729C203.016 79.8313 207.863 75.0541 213.835 75.0541C219.806 75.0541 224.583 79.8313 224.583 85.8729L224.583 115.027L249.453 115.027L249.453 85.8729C249.453 79.8313 254.3 75.0541 260.271 75.0541C266.243 75.0541 271.09 79.8313 271.09 85.8729L271.09 115.027L286.897 115.027C292.025 115.027 295.468 118.47 295.468 123.668L295.468 144.744C295.468 161.324 288.161 177.341 274.673 187.738C267.086 193.639 264.767 198.065 264.767 207.058L264.767 228.765C264.767 238.811 259.499 244.151 249.663 244.151ZM248.609 232.7C251.841 232.7 253.387 231.084 253.387 228.063L253.387 207.058C253.387 194.623 257.391 186.755 267.718 178.746C278.467 170.456 284.016 158.022 284.016 144.744L284.016 127.673C284.016 126.76 283.735 126.408 282.892 126.408L191.073 126.408C190.3 126.408 189.949 126.76 189.949 127.673L189.949 144.744C189.949 158.022 195.569 170.456 206.248 178.746C216.645 186.755 220.649 194.623 220.649 207.058L220.649 228.063C220.649 231.084 222.124 232.7 225.426 232.7L248.609 232.7Z"/>
</mask>
<path d="M199.293 187.738L195.007 193.269L195.015 193.274L195.022 193.28L199.293 187.738ZM203.016 115.028L203.016 122.024L210.012 122.024L210.012 115.027L203.016 115.028ZM224.583 115.027L217.587 115.027L217.587 122.024L224.583 122.024L224.583 115.027ZM249.453 115.027L249.453 122.024L256.449 122.024L256.449 115.027L249.453 115.027ZM271.09 115.027L264.094 115.027L264.094 122.024L271.09 122.024L271.09 115.027ZM274.673 187.738L270.402 182.197L270.39 182.206L270.378 182.216L274.673 187.738ZM267.718 178.746L263.445 173.206L263.438 173.212L263.431 173.217L267.718 178.746ZM206.248 178.746L201.957 184.272L201.968 184.281L201.978 184.289L206.248 178.746ZM249.663 237.154L224.373 237.154L224.373 251.147L249.663 251.147L249.663 237.154ZM224.373 237.154C220.633 237.154 218.892 236.164 218.052 235.312C217.195 234.444 216.194 232.626 216.194 228.765L202.202 228.765C202.202 234.951 203.835 240.825 208.09 245.138C212.36 249.467 218.207 251.147 224.373 251.147L224.373 237.154ZM216.194 228.765L216.194 207.058L202.202 207.058L202.202 228.765L216.194 228.765ZM216.194 207.058C216.194 202.007 215.572 197.403 213.345 193.051C211.144 188.752 207.741 185.416 203.563 182.197L195.022 193.28C198.502 195.962 200.051 197.79 200.889 199.426C201.7 201.011 202.202 203.115 202.202 207.058L216.194 207.058ZM203.578 182.208C191.97 173.213 185.565 159.29 185.565 144.744L171.572 144.744C171.572 163.357 179.779 181.469 195.007 193.269L203.578 182.208ZM185.565 144.744L185.565 123.668L171.572 123.668L171.572 144.744L185.565 144.744ZM185.565 123.668C185.565 122.604 185.883 122.295 185.892 122.287C185.918 122.26 185.973 122.21 186.107 122.158C186.248 122.102 186.53 122.024 186.999 122.024L186.999 108.031C182.835 108.031 178.838 109.483 175.882 112.51C172.939 115.522 171.572 119.534 171.572 123.668L185.565 123.668ZM186.999 122.024L203.016 122.024L203.016 108.031L186.999 108.031L186.999 122.024ZM210.012 115.027L210.012 85.8729L196.02 85.8729L196.02 115.028L210.012 115.027ZM210.012 85.8729C210.012 83.7248 211.698 82.0504 213.835 82.0504L213.835 68.0579C204.029 68.0579 196.02 75.9377 196.02 85.8729L210.012 85.8729ZM213.835 82.0504C215.913 82.0504 217.587 83.6654 217.587 85.8729L231.58 85.8729C231.58 75.9972 223.7 68.0579 213.835 68.0579L213.835 82.0504ZM217.587 85.8729L217.587 115.027L231.58 115.027L231.58 85.8729L217.587 85.8729ZM224.583 122.024L249.453 122.024L249.453 108.031L224.583 108.031L224.583 122.024ZM256.449 115.027L256.449 85.8729L242.456 85.8729L242.456 115.027L256.449 115.027ZM256.449 85.8729C256.449 83.7248 258.134 82.0504 260.271 82.0504L260.271 68.0579C250.466 68.0579 242.456 75.9377 242.456 85.8729L256.449 85.8729ZM260.271 82.0504C262.408 82.0504 264.094 83.7248 264.094 85.8729L278.086 85.8729C278.086 75.9377 270.077 68.0579 260.271 68.0579L260.271 82.0504ZM264.094 85.8729L264.094 115.027L278.086 115.027L278.086 85.8729L264.094 85.8729ZM271.09 122.024L286.897 122.024L286.897 108.031L271.09 108.031L271.09 122.024ZM286.897 122.024C287.858 122.024 288.128 122.315 288.144 122.331C288.162 122.35 288.471 122.646 288.471 123.668L302.464 123.668C302.464 119.492 301.051 115.468 298.067 112.466C295.08 109.461 291.064 108.031 286.897 108.031L286.897 122.024ZM288.471 123.668L288.471 144.744L302.464 144.744L302.464 123.668L288.471 123.668ZM288.471 144.744C288.471 159.287 282.069 173.204 270.402 182.197L278.944 193.279C294.254 181.478 302.464 163.36 302.464 144.744L288.471 144.744ZM270.378 182.216C266.248 185.428 262.858 188.756 260.655 193.037C258.419 197.38 257.771 201.981 257.771 207.058L271.764 207.058C271.764 203.142 272.275 201.034 273.095 199.441C273.948 197.786 275.511 195.95 278.968 193.261L270.378 182.216ZM257.771 207.058L257.771 228.765L271.764 228.765L271.764 207.058L257.771 207.058ZM257.771 228.765C257.771 232.626 256.77 234.45 255.914 235.321C255.078 236.171 253.355 237.154 249.663 237.154L249.663 251.147C255.807 251.147 261.636 249.46 265.893 245.13C270.131 240.819 271.764 234.951 271.764 228.765L257.771 228.765ZM248.609 239.696C251.304 239.696 254.572 239.018 257.129 236.489C259.701 233.946 260.383 230.692 260.383 228.063L246.39 228.063C246.39 228.454 246.3 227.519 247.291 226.539C248.268 225.573 249.146 225.703 248.609 225.703L248.609 239.696ZM260.383 228.063L260.383 207.058L246.39 207.058L246.39 228.063L260.383 228.063ZM260.383 207.058C260.383 201.614 261.254 197.693 262.92 194.405C264.601 191.088 267.366 187.873 272.005 184.275L263.431 173.217C257.743 177.628 253.342 182.351 250.439 188.079C247.522 193.836 246.39 200.067 246.39 207.058L260.383 207.058ZM271.991 184.286C284.595 174.565 291.013 160.009 291.013 144.744L277.02 144.744C277.02 156.034 272.338 166.348 263.445 173.206L271.991 184.286ZM291.013 144.744L291.013 127.673L277.02 127.673L277.02 144.744L291.013 144.744ZM291.013 127.673C291.013 126.883 290.979 124.326 289.05 122.107C286.883 119.616 284.045 119.412 282.892 119.412L282.892 133.405C282.583 133.405 280.307 133.377 278.491 131.289C277.668 130.342 277.316 129.374 277.164 128.754C277.021 128.172 277.02 127.755 277.02 127.673L291.013 127.673ZM282.892 119.412L191.073 119.412L191.073 133.405L282.892 133.405L282.892 119.412ZM191.073 119.412C189.776 119.412 187.139 119.698 185.055 121.981C183.117 124.103 182.953 126.573 182.953 127.673L196.945 127.673C196.945 127.859 196.957 129.697 195.388 131.415C193.672 133.295 191.598 133.405 191.073 133.405L191.073 119.412ZM182.953 127.673L182.953 144.744L196.945 144.744L196.945 127.673L182.953 127.673ZM182.953 144.744C182.953 160.032 189.456 174.568 201.957 184.272L210.538 173.22C201.682 166.345 196.945 156.011 196.945 144.744L182.953 144.744ZM201.978 184.289C206.651 187.888 209.427 191.103 211.112 194.414C212.782 197.698 213.653 201.614 213.653 207.058L227.645 207.058C227.645 200.067 226.514 193.832 223.583 188.07C220.666 182.337 216.242 177.613 210.517 173.203L201.978 184.289ZM213.653 207.058L213.653 228.063L227.645 228.063L227.645 207.058L213.653 207.058ZM213.653 228.063C213.653 230.611 214.276 233.885 216.852 236.461C219.428 239.037 222.736 239.696 225.426 239.696L225.426 225.703C224.815 225.703 225.734 225.554 226.747 226.567C227.76 227.58 227.645 228.536 227.645 228.063L213.653 228.063ZM225.426 239.696L248.609 239.696L248.609 225.703L225.426 225.703L225.426 239.696Z" fill="#007AFF" mask="url(#path-6-outside-1_1376_7564)"/>
<path d="M226.417 161.798C226.417 161.417 226.573 161.088 226.868 160.724L241.897 142.002C243.024 140.598 244.81 141.499 244.168 143.233L239.228 156.563H248.589C249.282 156.563 249.785 157.049 249.785 157.707C249.785 158.071 249.629 158.401 249.352 158.765L234.322 177.504C233.178 178.908 231.393 177.989 232.051 176.273L236.974 162.925H227.631C226.92 162.925 226.417 162.44 226.417 161.798Z" fill="#FFCC00"/>
<path d="M346.067 200.882C341.582 200.882 338.687 198.27 338.687 194.126C338.687 192.991 338.971 191.401 339.652 189.641L363.439 124.98C365.426 119.53 368.719 117.032 374.055 117.032C379.448 117.032 382.741 119.416 384.785 124.923L408.628 189.641C409.309 191.515 409.593 192.82 409.593 194.126C409.593 198.1 406.528 200.882 402.27 200.882C398.296 200.882 396.082 199.065 394.776 194.694L389.383 179.025H358.784L353.391 194.58C352.028 199.008 349.871 200.882 346.067 200.882ZM362.247 167.444H385.806L374.169 132.474H373.771L362.247 167.444ZM427.589 200.882C423.048 200.882 420.266 198.1 420.266 193.275V125.604C420.266 120.836 423.048 117.997 427.589 117.997H452.114C468.407 117.997 479.705 129.067 479.705 145.417C479.705 161.767 468.067 172.837 451.49 172.837H434.913V193.275C434.913 198.1 432.188 200.882 427.589 200.882ZM434.913 161.029H448.197C458.7 161.029 464.831 155.352 464.831 145.417C464.831 135.596 458.756 129.976 448.254 129.976H434.913V161.029ZM497.758 200.882C493.216 200.882 490.434 198.1 490.434 193.275V124.639C490.434 119.814 493.216 117.032 497.758 117.032C502.356 117.032 505.081 119.814 505.081 124.639V193.275C505.081 198.1 502.356 200.882 497.758 200.882Z" fill="#007AFF"/>
</g>
<defs>
<filter id="filter0_f_1376_7564" x="260" y="-460" width="800" height="800" filterUnits="userSpaceOnUse" color-interpolation-filters="sRGB">
<feFlood flood-opacity="0" result="BackgroundImageFix"/>
<feBlend mode="normal" in="SourceGraphic" in2="BackgroundImageFix" result="shape"/>
<feGaussianBlur stdDeviation="120" result="effect1_foregroundBlur_1376_7564"/>
</filter>
<filter id="filter1_f_1376_7564" x="-380" y="-187" width="800" height="800" filterUnits="userSpaceOnUse" color-interpolation-filters="sRGB">
<feFlood flood-opacity="0" result="BackgroundImageFix"/>
<feBlend mode="normal" in="SourceGraphic" in2="BackgroundImageFix" result="shape"/>
<feGaussianBlur stdDeviation="120" result="effect1_foregroundBlur_1376_7564"/>
</filter>
<filter id="filter2_f_1376_7564" x="260" y="80" width="800" height="800" filterUnits="userSpaceOnUse" color-interpolation-filters="sRGB">
<feFlood flood-opacity="0" result="BackgroundImageFix"/>
<feBlend mode="normal" in="SourceGraphic" in2="BackgroundImageFix" result="shape"/>
<feGaussianBlur stdDeviation="120" result="effect1_foregroundBlur_1376_7564"/>
</filter>
<filter id="filter3_f_1376_7564" x="-380" y="13" width="800" height="800" filterUnits="userSpaceOnUse" color-interpolation-filters="sRGB">
<feFlood flood-opacity="0" result="BackgroundImageFix"/>
<feBlend mode="normal" in="SourceGraphic" in2="BackgroundImageFix" result="shape"/>
<feGaussianBlur stdDeviation="120" result="effect1_foregroundBlur_1376_7564"/>
</filter>
<linearGradient id="paint0_linear_1376_7564" x1="1.27814e-05" y1="320" x2="710.784" y2="26.0793" gradientUnits="userSpaceOnUse">
<stop stop-color="#18E299" stop-opacity="0.09"/>
<stop offset="0.729167" stop-color="#0D9373" stop-opacity="0.08"/>
</linearGradient>
<clipPath id="clip0_1376_7564">
<rect width="700" height="320" fill="white"/>
</clipPath>
</defs>
</svg>
