<svg width="718" height="381" viewBox="0 0 718 381" fill="none" xmlns="http://www.w3.org/2000/svg">
<mask id="path-1-outside-1_1376_7498" maskUnits="userSpaceOnUse" x="24.9999" y="17.8652" width="246" height="345" fill="black">
<rect fill="white" x="24.9999" y="17.8652" width="246" height="345"/>
<path d="M171.746 349.021L124.327 349.021C105.755 349.021 95.8759 339.011 95.8759 320.175L95.8759 279.474C95.8759 262.614 91.6609 254.316 77.3036 243.252C52.1454 223.757 38.4467 193.726 38.4467 162.64L38.4467 123.125C38.4467 113.377 44.7692 106.923 54.2529 106.923L84.2847 106.923L84.2847 52.2601C84.2847 40.9323 93.3732 31.9754 104.569 31.9754C115.765 31.9754 124.722 40.9323 124.722 52.26L124.722 106.923L171.35 106.923L171.35 52.26C171.35 40.9323 180.439 31.9754 191.635 31.9754C202.831 31.9754 211.92 40.9323 211.92 52.26L211.92 106.923L241.556 106.923C251.172 106.923 257.626 113.377 257.626 123.124L257.626 162.64C257.626 193.726 243.927 223.757 218.637 243.252C204.412 254.316 200.065 262.614 200.065 279.474L200.065 320.175C200.065 339.011 190.186 349.021 171.746 349.021ZM169.77 327.551C175.829 327.551 178.727 324.522 178.727 318.858L178.727 279.474C178.727 256.16 186.235 241.408 205.597 226.392C225.75 210.849 236.156 187.535 236.156 162.64L236.156 130.632C236.156 128.92 235.629 128.262 234.048 128.262L61.8926 128.262C60.4437 128.262 59.7851 128.92 59.7851 130.632L59.7851 162.64C59.7851 187.535 70.3225 210.849 90.3437 226.392C109.838 241.408 117.346 256.16 117.346 279.474L117.346 318.858C117.346 324.522 120.112 327.551 126.303 327.551L169.77 327.551Z"/>
</mask>
<path d="M77.3036 243.252L69.269 253.621L69.2827 253.631L69.2965 253.642L77.3036 243.252ZM84.2847 106.923L84.2847 120.041L97.4022 120.041L97.4022 106.923L84.2847 106.923ZM124.722 106.923L111.605 106.923L111.605 120.041L124.722 120.041L124.722 106.923ZM171.35 106.923L171.35 120.041L184.468 120.041L184.468 106.923L171.35 106.923ZM211.92 106.923L198.802 106.923L198.802 120.041L211.92 120.041L211.92 106.923ZM218.637 243.252L210.629 232.862L210.606 232.88L210.584 232.897L218.637 243.252ZM205.597 226.392L197.586 216.004L197.572 216.015L197.558 216.026L205.597 226.392ZM90.3437 226.392L82.2998 236.753L82.3194 236.769L82.339 236.784L90.3437 226.392ZM171.746 335.904L124.327 335.904L124.327 362.139L171.746 362.139L171.746 335.904ZM124.327 335.904C117.315 335.904 114.051 334.047 112.475 332.45C110.87 330.822 108.993 327.413 108.993 320.175L82.7583 320.175C82.7583 331.773 85.8209 342.787 93.7982 350.874C101.805 358.99 112.767 362.139 124.327 362.139L124.327 335.904ZM108.993 320.175L108.993 279.474L82.7583 279.474L82.7583 320.175L108.993 320.175ZM108.993 279.474C108.993 270.005 107.827 261.373 103.651 253.213C99.5246 245.152 93.1433 238.898 85.3107 232.861L69.2965 253.642C75.8212 258.67 78.7261 262.097 80.2968 265.166C81.8172 268.137 82.7583 272.083 82.7583 279.474L108.993 279.474ZM85.3382 232.883C63.5739 216.018 51.5643 189.913 51.5643 162.64L25.3291 162.64C25.3291 197.539 40.7169 231.496 69.269 253.621L85.3382 232.883ZM51.5643 162.64L51.5643 123.125L25.3291 123.125L25.3291 162.64L51.5643 162.64ZM51.5643 123.125C51.5643 121.129 52.1622 120.55 52.1774 120.534C52.227 120.484 52.3308 120.391 52.5819 120.292C52.8452 120.188 53.374 120.041 54.2529 120.041L54.2529 93.8056C46.4466 93.8056 38.9527 96.5276 33.4094 102.203C27.8925 107.851 25.3291 115.373 25.3291 123.125L51.5643 123.125ZM54.2529 120.041L84.2847 120.041L84.2847 93.8056L54.2529 93.8056L54.2529 120.041ZM97.4022 106.923L97.4022 52.2601L71.1671 52.2601L71.1671 106.923L97.4022 106.923ZM97.4022 52.2601C97.4022 48.2324 100.562 45.093 104.569 45.093L104.569 18.8579C86.1842 18.8579 71.1671 33.6321 71.1671 52.2601L97.4022 52.2601ZM104.569 45.093C108.465 45.093 111.605 48.121 111.605 52.2601L137.84 52.26C137.84 33.7435 123.066 18.8579 104.569 18.8579L104.569 45.093ZM111.605 52.2601L111.605 106.923L137.84 106.923L137.84 52.26L111.605 52.2601ZM124.722 120.041L171.35 120.041L171.35 93.8056L124.722 93.8056L124.722 120.041ZM184.468 106.923L184.468 52.26L158.233 52.26L158.233 106.923L184.468 106.923ZM184.468 52.26C184.468 48.2324 187.628 45.093 191.635 45.093L191.635 18.8579C173.25 18.8579 158.233 33.6321 158.233 52.26L184.468 52.26ZM191.635 45.093C195.642 45.093 198.802 48.2324 198.802 52.26L225.037 52.26C225.037 33.6321 210.02 18.8579 191.635 18.8579L191.635 45.093ZM198.802 52.26L198.802 106.923L225.037 106.923L225.037 52.26L198.802 52.26ZM211.92 120.041L241.556 120.041L241.556 93.8056L211.92 93.8056L211.92 120.041ZM241.556 120.041C243.358 120.041 243.864 120.587 243.894 120.617C243.929 120.652 244.508 121.207 244.508 123.124L270.744 123.124C270.744 115.294 268.095 107.749 262.499 102.12C256.899 96.4867 249.37 93.8056 241.556 93.8056L241.556 120.041ZM244.508 123.124L244.508 162.64L270.744 162.64L270.744 123.124L244.508 123.124ZM244.508 162.64C244.508 189.907 232.505 216 210.629 232.862L226.646 253.641C255.35 231.515 270.744 197.544 270.744 162.64L244.508 162.64ZM210.584 232.897C202.84 238.92 196.486 245.159 192.354 253.186C188.162 261.329 186.948 269.955 186.948 279.474L213.183 279.474C213.183 272.133 214.142 268.18 215.679 265.193C217.277 262.09 220.209 258.647 226.691 253.606L210.584 232.897ZM186.948 279.474L186.948 320.175L213.183 320.175L213.183 279.474L186.948 279.474ZM186.948 320.175C186.948 327.413 185.07 330.834 183.466 332.466C181.898 334.061 178.667 335.904 171.746 335.904L171.746 362.139C183.264 362.139 194.193 358.977 202.175 350.858C210.121 342.775 213.183 331.773 213.183 320.175L186.948 320.175ZM169.77 340.669C174.822 340.669 180.948 339.398 185.744 334.656C190.566 329.888 191.844 323.788 191.844 318.858L165.609 318.858C165.609 319.592 165.439 317.839 167.297 316.001C169.129 314.19 170.777 314.434 169.77 314.434L169.77 340.669ZM191.844 318.858L191.844 279.474L165.609 279.474L165.609 318.858L191.844 318.858ZM191.844 279.474C191.844 269.268 193.477 261.916 196.602 255.751C199.753 249.533 204.937 243.503 213.636 236.757L197.558 216.026C186.895 224.296 178.644 233.151 173.2 243.891C167.73 254.685 165.609 266.367 165.609 279.474L191.844 279.474ZM213.608 236.779C237.241 218.552 249.273 191.261 249.273 162.64L223.038 162.64C223.038 183.808 214.259 203.146 197.586 216.004L213.608 236.779ZM249.273 162.64L249.273 130.632L223.038 130.632L223.038 162.64L249.273 162.64ZM249.273 130.632C249.273 129.151 249.211 124.357 245.593 120.197C241.531 115.525 236.208 115.144 234.048 115.144L234.048 141.379C233.469 141.379 229.2 141.327 225.796 137.412C224.253 135.638 223.592 133.821 223.308 132.66C223.041 131.569 223.038 130.787 223.038 130.632L249.273 130.632ZM234.048 115.144L61.8926 115.144L61.8926 141.379L234.048 141.379L234.048 115.144ZM61.8926 115.144C59.4599 115.144 54.5168 115.679 50.6083 119.96C46.9747 123.94 46.6675 128.571 46.6675 130.632L72.9026 130.632C72.9026 130.982 72.9247 134.427 69.9826 137.65C66.7657 141.173 62.8763 141.379 61.8926 141.379L61.8926 115.144ZM46.6675 130.632L46.6675 162.64L72.9026 162.64L72.9026 130.632L46.6675 130.632ZM46.6675 162.64C46.6675 191.304 58.8606 218.557 82.2998 236.753L98.3877 216.03C81.7845 203.141 72.9026 183.766 72.9026 162.64L46.6675 162.64ZM82.339 236.784C91.0992 243.531 96.3047 249.56 99.4637 255.769C102.595 261.925 104.228 269.267 104.228 279.474L130.464 279.474C130.464 266.367 128.343 254.676 122.847 243.873C117.378 233.124 109.083 224.268 98.3484 216L82.339 236.784ZM104.228 279.474L104.228 318.858L130.464 318.858L130.464 279.474L104.228 279.474ZM104.228 318.858C104.228 323.636 105.397 329.773 110.227 334.604C115.056 339.433 121.258 340.669 126.303 340.669L126.303 314.434C125.157 314.434 126.88 314.155 128.778 316.053C130.678 317.953 130.464 319.744 130.464 318.858L104.228 318.858ZM126.303 340.669L169.77 340.669L169.77 314.434L126.303 314.434L126.303 340.669Z" fill="#007AFF" mask="url(#path-1-outside-1_1376_7498)"/>
<path d="M128.279 194.869C128.279 194.154 128.571 193.536 129.124 192.854L157.303 157.752C159.415 155.119 162.763 156.809 161.561 160.059L152.297 185.053H169.849C171.149 185.053 172.091 185.963 172.091 187.198C172.091 187.881 171.799 188.498 171.279 189.181L143.099 224.316C140.954 226.948 137.607 225.226 138.842 222.008L148.072 196.981H130.554C129.221 196.981 128.279 196.071 128.279 194.869Z" fill="#FFCC00"/>
<path d="M405.801 267.151C397.392 267.151 391.963 262.255 391.963 254.484C391.963 252.356 392.496 249.375 393.773 246.075L438.372 124.839C442.097 114.621 448.271 109.937 458.276 109.937C468.388 109.937 474.562 114.408 478.394 124.733L523.099 246.075C524.376 249.588 524.908 252.036 524.908 254.484C524.908 261.935 519.161 267.151 511.177 267.151C503.727 267.151 499.575 263.745 497.127 255.549L487.015 226.171H429.644L419.532 255.336C416.977 263.638 412.932 267.151 405.801 267.151ZM436.137 204.457H480.31L458.489 138.889H457.744L436.137 204.457ZM558.65 267.151C550.135 267.151 544.919 261.935 544.919 252.888V126.01C544.919 117.069 550.135 111.747 558.65 111.747H604.633C635.181 111.747 656.363 132.503 656.363 163.158C656.363 193.813 634.543 214.569 603.462 214.569H572.381V252.888C572.381 261.935 567.272 267.151 558.65 267.151ZM572.381 192.429H597.288C616.98 192.429 628.475 181.785 628.475 163.158C628.475 144.744 617.086 134.206 597.395 134.206H572.381V192.429ZM690.211 267.151C681.696 267.151 676.48 261.935 676.48 252.888V124.2C676.48 115.153 681.696 109.937 690.211 109.937C698.833 109.937 703.942 115.153 703.942 124.2V252.888C703.942 261.935 698.833 267.151 690.211 267.151Z" fill="#007AFF"/>
</svg>
